<svg width="128" height="37" viewBox="0 0 128 37" fill="none" xmlns="http://www.w3.org/2000/svg">
<rect x="0.5" y="0.5" width="127" height="36" rx="4.5" stroke="#CAC0C0"/>
<path d="M30 10H28V9C28 8.73478 27.8946 8.48043 27.7071 8.29289C27.5196 8.10536 27.2652 8 27 8C26.7348 8 26.4804 8.10536 26.2929 8.29289C26.1054 8.48043 26 8.73478 26 9V10H20V9C20 8.73478 19.8946 8.48043 19.7071 8.29289C19.5196 8.10536 19.2652 8 19 8C18.7348 8 18.4804 8.10536 18.2929 8.29289C18.1054 8.48043 18 8.73478 18 9V10H16C15.2044 10 14.4413 10.3161 13.8787 10.8787C13.3161 11.4413 13 12.2044 13 13V25C13 25.7956 13.3161 26.5587 13.8787 27.1213C14.4413 27.6839 15.2044 28 16 28H30C30.7956 28 31.5587 27.6839 32.1213 27.1213C32.6839 26.5587 33 25.7956 33 25V13C33 12.2044 32.6839 11.4413 32.1213 10.8787C31.5587 10.3161 30.7956 10 30 10ZM31 25C31 25.2652 30.8946 25.5196 30.7071 25.7071C30.5196 25.8946 30.2652 26 30 26H16C15.7348 26 15.4804 25.8946 15.2929 25.7071C15.1054 25.5196 15 25.2652 15 25V18H31V25ZM31 16H15V13C15 12.7348 15.1054 12.4804 15.2929 12.2929C15.4804 12.1054 15.7348 12 16 12H18V13C18 13.2652 18.1054 13.5196 18.2929 13.7071C18.4804 13.8946 18.7348 14 19 14C19.2652 14 19.5196 13.8946 19.7071 13.7071C19.8946 13.5196 20 13.2652 20 13V12H26V13C26 13.2652 26.1054 13.5196 26.2929 13.7071C26.4804 13.8946 26.7348 14 27 14C27.2652 14 27.5196 13.8946 27.7071 13.7071C27.8946 13.5196 28 13.2652 28 13V12H30C30.2652 12 30.5196 12.1054 30.7071 12.2929C30.8946 12.4804 31 12.7348 31 13V16Z" fill="#2668E8"/>
<path d="M109 22.9986L103 16.9996L105.001 15L109 18.9993L113 15L115.001 16.9996L109 23V22.9986Z" fill="black"/>
<path d="M58.512 12.912V24H57.04V15.92L53.328 24H52.384L48.656 15.92V24H47.2V12.912H48.688L52.864 22L57.024 12.912H58.512ZM64.7748 15.072C65.6068 15.072 66.3588 15.2587 67.0308 15.632C67.7028 16.0053 68.2308 16.5387 68.6148 17.232C69.0094 17.9253 69.2068 18.72 69.2068 19.616C69.2068 20.5013 69.0041 21.2907 68.5988 21.984C68.1934 22.6667 67.6441 23.2 66.9508 23.584C66.2574 23.9573 65.4894 24.144 64.6468 24.144C63.8254 24.144 63.0841 23.9573 62.4228 23.584C61.7721 23.2107 61.2601 22.6827 60.8868 22C60.5241 21.3067 60.3428 20.512 60.3428 19.616C60.3428 18.7093 60.5348 17.9147 60.9188 17.232C61.3134 16.5387 61.8468 16.0053 62.5188 15.632C63.1908 15.2587 63.9428 15.072 64.7748 15.072ZM64.7268 16.272C64.1934 16.272 63.7081 16.4 63.2708 16.656C62.8334 16.912 62.4814 17.2907 62.2148 17.792C61.9588 18.2933 61.8307 18.9013 61.8307 19.616C61.8307 20.32 61.9534 20.9227 62.1988 21.424C62.4548 21.9253 62.7961 22.304 63.2228 22.56C63.6494 22.816 64.1241 22.944 64.6468 22.944C65.1801 22.944 65.6761 22.816 66.1348 22.56C66.6041 22.2933 66.9828 21.9093 67.2708 21.408C67.5588 20.9067 67.7028 20.3093 67.7028 19.616C67.7028 18.912 67.5641 18.3093 67.2868 17.808C67.0201 17.296 66.6574 16.912 66.1988 16.656C65.7508 16.4 65.2601 16.272 64.7268 16.272ZM75.3481 15.072C75.9775 15.072 76.5481 15.216 77.0601 15.504C77.5828 15.7813 77.9935 16.2027 78.2921 16.768C78.6015 17.3227 78.7561 18 78.7561 18.8V24H77.3161V19.04C77.3161 18.1547 77.1028 17.4827 76.6761 17.024C76.2495 16.5653 75.6575 16.336 74.9001 16.336C74.1535 16.336 73.5615 16.5653 73.1241 17.024C72.6975 17.4827 72.4841 18.1547 72.4841 19.04V24H71.0281V15.216H72.4841V16.64C72.7721 16.128 73.1668 15.7387 73.6681 15.472C74.1695 15.2053 74.7295 15.072 75.3481 15.072ZM85.155 22.816V24H83.683C82.9363 24 82.3657 23.8187 81.971 23.456C81.587 23.0933 81.395 22.5227 81.395 21.744V16.4H80.259V15.216H81.395V13.04H82.867V15.216H85.139V16.4H82.867V21.744C82.867 22.1387 82.947 22.416 83.107 22.576C83.267 22.736 83.5497 22.816 83.955 22.816H85.155ZM91.0825 15.072C91.7118 15.072 92.2825 15.216 92.7945 15.504C93.3172 15.7813 93.7278 16.2027 94.0265 16.768C94.3358 17.3227 94.4905 18 94.4905 18.8V24H93.0505V19.04C93.0505 18.1547 92.8372 17.4827 92.4105 17.024C91.9838 16.5653 91.3918 16.336 90.6345 16.336C89.8878 16.336 89.2958 16.5653 88.8585 17.024C88.4318 17.4827 88.2185 18.1547 88.2185 19.04V24H86.7625V12.16H88.2185V16.64C88.5065 16.128 88.9012 15.7387 89.4025 15.472C89.9038 15.2053 90.4638 15.072 91.0825 15.072Z" fill="black"/>
</svg>
